<svg width="20" height="21" viewBox="0 0 20 21" fill="none" xmlns="http://www.w3.org/2000/svg">
<g clip-path="url(#clip0_24_35)">
<path d="M19.6667 9.65279L11.5083 1.56946C11.0921 1.17312 10.5359 0.957658 9.96125 0.970149C9.38662 0.982641 8.8403 1.22207 8.44167 1.63613C8.03074 2.03698 7.79422 2.58354 7.7833 3.15749C7.77238 3.73144 7.98795 4.2866 8.38333 4.70279L11.6083 7.80279C11.6399 7.8298 11.6619 7.86635 11.6709 7.90694C11.68 7.94752 11.6755 7.98994 11.6583 8.02779C11.6434 8.06662 11.6171 8.10007 11.5829 8.12383C11.5488 8.1476 11.5083 8.16059 11.4667 8.16113H1.775C1.27466 8.21367 0.815582 8.4625 0.498454 8.85305C0.181326 9.24361 0.032038 9.74399 0.0833331 10.2445C0.0833331 10.9195 0.458333 12.3361 1.75 12.3361H11.4833C11.524 12.336 11.5638 12.3477 11.5979 12.37C11.6319 12.3922 11.6587 12.4239 11.675 12.4611C11.6973 12.496 11.7091 12.5364 11.7091 12.5778C11.7091 12.6191 11.6973 12.6596 11.675 12.6945L8.55833 15.8028C8.21445 16.2277 8.0397 16.7647 8.06766 17.3107C8.09563 17.8566 8.32432 18.3729 8.70982 18.7605C9.09532 19.1481 9.61044 19.3795 10.1562 19.4104C10.702 19.4413 11.2399 19.2694 11.6667 18.9278L19.6917 10.8278C19.8436 10.6684 19.9263 10.4553 19.9216 10.2351C19.9169 10.015 19.8252 9.8056 19.6667 9.65279Z" fill="#A4031F"/>
</g>
<defs>
<clipPath id="clip0_24_35">
<rect width="20" height="20" fill="white" transform="translate(0 0.244446)"/>
</clipPath>
</defs>
</svg>
