<svg width="25" height="29" viewBox="0 0 25 29" fill="none" xmlns="http://www.w3.org/2000/svg">
<g clip-path="url(#clip0_71_26)">
<path d="M12.5293 0C5.9123 0 0.529297 5.20357 0.529297 11.6C0.529297 17.9964 5.9123 23.2 12.5293 23.2C13.3573 23.2 14.0293 22.5514 14.0293 21.75C14.0293 20.9486 13.3573 20.3 12.5293 20.3C7.5663 20.3 3.5293 16.3966 3.5293 11.6C3.5293 6.8034 7.5663 2.9 12.5293 2.9C17.4923 2.9 21.5293 6.8034 21.5293 11.6C21.5293 13.0635 21.1733 14.4478 20.4663 15.7228C20.3483 15.9384 20.2023 16.153 20.0703 16.3512L19.9753 16.4024V11.7121C19.9753 11.6744 19.9813 11.6377 19.9813 11.6C19.9813 7.62893 16.6383 4.39737 12.5303 4.39737C8.4223 4.39737 5.0793 7.62893 5.0793 11.6C5.0793 15.5711 8.4223 18.8026 12.5303 18.8026C14.2633 18.8026 15.8563 18.2226 17.1233 17.2598C17.5053 18.4537 18.6443 19.3295 20.0033 19.3295C20.9523 19.3295 21.8583 18.8916 22.4743 18.0931L22.5783 17.9433C22.7693 17.6562 22.9603 17.3681 23.1143 17.0878C24.0533 15.3932 24.5303 13.5469 24.5303 11.601C24.5293 5.20357 19.1463 0 12.5293 0ZM16.9743 11.6V11.6561C16.9423 14.0022 14.9633 15.9026 12.5293 15.9026C10.0753 15.9026 8.0783 13.9722 8.0783 11.6C8.0783 9.2278 10.0753 7.29737 12.5293 7.29737C14.9833 7.29737 16.9613 9.21233 16.9773 11.572C16.9773 11.5816 16.9743 11.5903 16.9743 11.6Z" fill="#ECECEC"/>
</g>
<defs>
<clipPath id="clip0_71_26">
<rect width="24" height="29" fill="white" transform="translate(0.529297)"/>
</clipPath>
</defs>
</svg>
