<svg width="26" height="26" viewBox="0 0 26 26" fill="none" xmlns="http://www.w3.org/2000/svg">
<path d="M3.25 3.25L22.75 22.75M11.375 11.5668C11.01 11.9801 10.8163 12.517 10.8334 13.0681C10.8504 13.6193 11.077 14.1432 11.4669 14.5331C11.8568 14.923 12.3807 15.1496 12.9319 15.1666C13.483 15.1837 14.0199 14.99 14.4333 14.625" stroke="white" stroke-width="1.5" stroke-linecap="round" stroke-linejoin="round"/>
<path d="M7.9755 8.19108C6.15333 9.46833 4.63558 11.2883 3.25 13C5.29642 16.2403 8.97217 19.5 13 19.5C14.6792 19.5 16.2966 18.9334 17.7613 18.0375M13 6.5C17.342 6.5 20.2594 9.92117 22.75 13C22.393 13.5642 22.0031 14.1068 21.5822 14.625" stroke="white" stroke-width="1.5" stroke-linecap="round" stroke-linejoin="round"/>
</svg>
