<svg width="30" height="30" viewBox="0 0 30 30" fill="none" xmlns="http://www.w3.org/2000/svg">
<g clip-path="url(#clip0_50_7)">
<path d="M15 0.349976C11.429 0.348915 7.97474 1.62188 5.25839 3.93996C2.54205 6.25804 0.741812 9.46916 0.181389 12.9959C-0.379035 16.5227 0.337127 20.1337 2.20109 23.1796C4.06506 26.2255 6.95455 28.5065 10.35 29.6125H10.7C11.0193 29.628 11.3324 29.5207 11.575 29.3125C11.7209 29.1854 11.8369 29.0276 11.9147 28.8504C11.9925 28.6732 12.0302 28.4809 12.025 28.2875V28.025C12.025 27.8125 12.025 27.525 12.025 26.6625C12.0149 26.5814 11.9887 26.5031 11.9479 26.4322C11.9071 26.3614 11.8526 26.2994 11.7875 26.25C11.7163 26.193 11.6336 26.1523 11.5451 26.1308C11.4565 26.1092 11.3643 26.1072 11.275 26.125C7.91247 26.85 7.19997 24.75 7.16247 24.6125C6.73965 23.4997 5.98465 22.5439 4.99997 21.875L4.81247 21.7375C4.96007 21.6662 5.12415 21.636 5.28747 21.65C5.59901 21.6968 5.89341 21.8225 6.14279 22.015C6.39217 22.2075 6.58826 22.4605 6.71247 22.75C7.19604 23.592 7.98733 24.2135 8.91986 24.484C9.8524 24.7544 10.8535 24.6526 11.7125 24.2C11.8053 24.1587 11.8874 24.0967 11.9524 24.0187C12.0174 23.9406 12.0636 23.8487 12.0875 23.75C12.1381 23.1762 12.3854 22.6375 12.7875 22.225C12.8802 22.145 12.9473 22.0396 12.9807 21.9219C13.014 21.8041 13.012 21.6791 12.975 21.5625C12.9408 21.4456 12.8727 21.3416 12.7792 21.2637C12.6857 21.1858 12.571 21.1375 12.45 21.125C9.48747 20.7875 6.44997 19.75 6.44997 14.6375C6.4284 13.3519 6.90292 12.1074 7.77497 11.1625C7.85379 11.0762 7.90627 10.9691 7.9262 10.8539C7.94614 10.7387 7.9327 10.6203 7.88747 10.5125C7.54128 9.53739 7.5457 8.47215 7.89997 7.49998C9.05427 7.70625 10.1378 8.2007 11.05 8.93748C11.1259 8.98937 11.2127 9.02313 11.3037 9.03613C11.3948 9.04913 11.4876 9.04104 11.575 9.01248C12.6923 8.7145 13.8436 8.56323 15 8.56248C16.1608 8.55697 17.3171 8.70834 18.4375 9.01248C18.5228 9.04094 18.6136 9.04898 18.7026 9.03595C18.7917 9.02293 18.8764 8.9892 18.95 8.93748C19.861 8.19884 20.945 7.70415 22.1 7.49998C22.4433 8.46192 22.4433 9.51303 22.1 10.475C22.0548 10.5836 22.0425 10.7032 22.0647 10.8188C22.087 10.9343 22.1427 11.0408 22.225 11.125C23.0835 12.0623 23.5528 13.2915 23.5375 14.5625C23.5375 19.6875 20.5 20.7125 17.525 21.0375C17.4039 21.05 17.2893 21.0983 17.1958 21.1762C17.1023 21.2541 17.0341 21.3581 17 21.475C16.9639 21.5898 16.9625 21.7126 16.9958 21.8282C17.0292 21.9438 17.0958 22.047 17.1875 22.125C17.464 22.4136 17.6752 22.7583 17.8067 23.1358C17.9383 23.5132 17.9871 23.9145 17.95 24.3125V28.2875C17.9472 28.4818 17.9872 28.6743 18.0671 28.8515C18.147 29.0286 18.2649 29.186 18.4125 29.3125C18.5986 29.4544 18.8159 29.5499 19.0463 29.5912C19.2767 29.6325 19.5136 29.6184 19.7375 29.55C23.094 28.4078 25.9374 26.1135 27.7632 23.0742C29.5891 20.035 30.2793 16.4472 29.7115 12.9474C29.1437 9.44767 27.3545 6.26216 24.6614 3.95607C21.9684 1.64998 18.5454 0.372393 15 0.349976Z" fill="white"/>
</g>
<defs>
<clipPath id="clip0_50_7">
<rect width="30" height="30" fill="white"/>
</clipPath>
</defs>
</svg>
