<svg width="30" height="30" viewBox="0 0 30 30" fill="none" xmlns="http://www.w3.org/2000/svg">
<path d="M8.125 10.625H3.125C2.77982 10.625 2.5 10.9048 2.5 11.25V27.5C2.5 27.8452 2.77982 28.125 3.125 28.125H8.125C8.47018 28.125 8.75 27.8452 8.75 27.5V11.25C8.75 10.9048 8.47018 10.625 8.125 10.625Z" fill="white"/>
<path d="M5.60003 8.12502C6.21913 8.12998 6.82576 7.95092 7.34294 7.61056C7.86012 7.27021 8.26455 6.7839 8.50491 6.21333C8.74527 5.64277 8.81074 5.01366 8.693 4.40584C8.57526 3.79801 8.27962 3.23885 7.84359 2.79931C7.40756 2.35976 6.8508 2.05964 6.24394 1.93702C5.63707 1.81441 5.00746 1.87481 4.43499 2.11059C3.86251 2.34636 3.37297 2.74686 3.02847 3.2613C2.68397 3.77573 2.50005 4.3809 2.50003 5.00002C2.49838 5.40876 2.57726 5.81383 2.73216 6.19208C2.88706 6.57034 3.11495 6.91438 3.40281 7.20456C3.69067 7.49475 4.03287 7.72539 4.40987 7.88332C4.78687 8.04125 5.19129 8.12338 5.60003 8.12502Z" fill="white"/>
<path d="M23.125 28.125H26.875C27.0408 28.125 27.1997 28.0592 27.3169 27.942C27.4342 27.8248 27.5 27.6658 27.5 27.5V17C27.5 12.2875 24.8375 10 21.1125 10C20.3749 9.97379 19.6399 10.1026 18.9552 10.3782C18.2705 10.6539 17.6513 11.0701 17.1375 11.6C17.0677 11.6758 16.9756 11.7276 16.8745 11.7478C16.7735 11.768 16.6686 11.7557 16.575 11.7125C16.4805 11.6772 16.3989 11.6142 16.3409 11.5316C16.2829 11.4491 16.2512 11.3509 16.25 11.25C16.25 11.0843 16.1842 10.9253 16.0669 10.8081C15.9497 10.6909 15.7908 10.625 15.625 10.625H11.875C11.7092 10.625 11.5503 10.6909 11.4331 10.8081C11.3158 10.9253 11.25 11.0843 11.25 11.25V27.5C11.25 27.6658 11.3158 27.8248 11.4331 27.942C11.5503 28.0592 11.7092 28.125 11.875 28.125H15.625C15.7908 28.125 15.9497 28.0592 16.0669 27.942C16.1842 27.8248 16.25 27.6658 16.25 27.5V18.125C16.25 17.2962 16.5792 16.5014 17.1653 15.9153C17.7513 15.3293 18.5462 15 19.375 15C20.2038 15 20.9987 15.3293 21.5847 15.9153C22.1708 16.5014 22.5 17.2962 22.5 18.125V27.5C22.5 27.6658 22.5658 27.8248 22.6831 27.942C22.8003 28.0592 22.9592 28.125 23.125 28.125Z" fill="white"/>
</svg>
