<svg width="133" height="37" viewBox="0 0 133 37" fill="none" xmlns="http://www.w3.org/2000/svg">
<path d="M11.24 1.08C13.64 1.08 15.5467 1.29333 16.96 1.72C18.4 2.12 19.44 2.84 20.08 3.88C20.72 4.92 21.04 6.38667 21.04 8.28C21.04 10.2533 20.6533 11.76 19.88 12.8C19.1333 13.8133 17.8933 14.4 16.16 14.56V14.8C18.2933 14.9867 19.7867 15.7067 20.64 16.96C21.4933 18.1867 21.92 19.9067 21.92 22.12C21.92 24.0133 21.5867 25.48 20.92 26.52C20.28 27.56 19.2667 28.2933 17.88 28.72C16.52 29.12 14.7333 29.32 12.52 29.32C10.7333 29.32 9.17333 29.3067 7.84 29.28C6.53333 29.28 5.32 29.2533 4.2 29.2C3.08 29.1467 1.93333 29.08 0.76 29L1.36 24.76C2 24.7867 3.22667 24.8133 5.04 24.84C6.88 24.8667 9.01333 24.88 11.44 24.88C12.56 24.88 13.44 24.7733 14.08 24.56C14.72 24.3467 15.16 23.96 15.4 23.4C15.6667 22.8133 15.8 21.9867 15.8 20.92C15.8 19.7733 15.6667 18.9067 15.4 18.32C15.1333 17.7067 14.6667 17.28 14 17.04C13.36 16.8 12.4667 16.6667 11.32 16.64H1.32V12.76H11.24C12.2267 12.7333 13 12.6267 13.56 12.44C14.1467 12.2533 14.56 11.8933 14.8 11.36C15.04 10.8267 15.16 10.08 15.16 9.12C15.16 8.13333 15.0267 7.38667 14.76 6.88C14.52 6.34667 14.0933 5.98667 13.48 5.8C12.8667 5.61333 12.0133 5.52 10.92 5.52C9.42667 5.52 8.10667 5.52 6.96 5.52C5.81333 5.52 4.78667 5.53333 3.88 5.56C2.97333 5.56 2.13333 5.58667 1.36 5.64L0.76 1.4C1.82667 1.29333 2.85333 1.22667 3.84 1.2C4.85333 1.14667 5.94667 1.12 7.12 1.12C8.29333 1.09333 9.66667 1.08 11.24 1.08ZM6.76 1.4V29H0.76V1.4H6.76ZM31.9459 0.999998L31.9059 22.68C31.9059 23.3467 32.1059 23.8533 32.5059 24.2C32.9059 24.52 33.4926 24.68 34.2659 24.68H35.8659L36.5459 28.68C36.2259 28.84 35.7726 28.9733 35.1859 29.08C34.5993 29.2133 33.9993 29.3067 33.3859 29.36C32.7726 29.44 32.2526 29.48 31.8259 29.48C30.0393 29.48 28.6259 29.0133 27.5859 28.08C26.5459 27.1467 26.0259 25.84 26.0259 24.16V0.999998H31.9459ZM48.5109 8.72C50.9909 8.72 52.9776 9.06667 54.4709 9.76C55.9643 10.4267 57.0309 11.52 57.6709 13.04C58.3376 14.56 58.6709 16.6 58.6709 19.16C58.6709 21.6667 58.3376 23.68 57.6709 25.2C57.0309 26.72 55.9643 27.8133 54.4709 28.48C52.9776 29.1467 50.9909 29.48 48.5109 29.48C46.0576 29.48 44.0709 29.1467 42.5509 28.48C41.0576 27.8133 39.9776 26.72 39.3109 25.2C38.6443 23.68 38.3109 21.6667 38.3109 19.16C38.3109 16.6 38.6443 14.56 39.3109 13.04C39.9776 11.52 41.0576 10.4267 42.5509 9.76C44.0709 9.06667 46.0576 8.72 48.5109 8.72ZM48.5109 13.04C47.4976 13.04 46.6976 13.2133 46.1109 13.56C45.5243 13.9067 45.1109 14.52 44.8709 15.4C44.6309 16.28 44.5109 17.5333 44.5109 19.16C44.5109 20.76 44.6309 22 44.8709 22.88C45.1109 23.76 45.5243 24.3733 46.1109 24.72C46.6976 25.04 47.4976 25.2 48.5109 25.2C49.5243 25.2 50.3243 25.04 50.9109 24.72C51.4976 24.3733 51.9109 23.76 52.1509 22.88C52.3909 22 52.5109 20.76 52.5109 19.16C52.5109 17.5333 52.3909 16.28 52.1509 15.4C51.9109 14.52 51.4976 13.9067 50.9109 13.56C50.3243 13.2133 49.5243 13.04 48.5109 13.04ZM71.5047 8.72C73.798 8.72 75.6114 8.93333 76.9447 9.36C78.3047 9.78667 79.278 10.4533 79.8647 11.36C80.478 12.2667 80.7847 13.48 80.7847 15C80.7847 16.4667 80.4914 17.6667 79.9047 18.6C79.318 19.5067 78.3314 20.1733 76.9447 20.6C75.5847 21.0267 73.758 21.24 71.4647 21.24C69.1714 21.24 67.3314 21.0267 65.9447 20.6C64.5847 20.1733 63.598 19.5067 62.9847 18.6C62.398 17.6933 62.1047 16.4933 62.1047 15C62.1047 13.5067 62.398 12.3067 62.9847 11.4C63.598 10.4667 64.598 9.78667 65.9847 9.36C67.3714 8.93333 69.2114 8.72 71.5047 8.72ZM71.4647 12.36C69.998 12.36 68.9847 12.56 68.4247 12.96C67.8647 13.3333 67.5847 14.0133 67.5847 15C67.5847 15.9867 67.8647 16.68 68.4247 17.08C68.9847 17.48 69.998 17.68 71.4647 17.68C72.9314 17.68 73.9314 17.48 74.4647 17.08C74.998 16.68 75.2647 15.9867 75.2647 15C75.2647 14.0133 74.998 13.3333 74.4647 12.96C73.9314 12.56 72.9314 12.36 71.4647 12.36ZM83.0647 9.24L82.7447 11.76L77.4647 12.44L76.0247 9.24H83.0647ZM65.5047 20.04L68.4647 20.56C68.0914 20.7733 67.8247 21.1067 67.6647 21.56C67.5314 22.0133 67.5714 22.44 67.7847 22.84C67.998 23.24 68.4647 23.48 69.1847 23.56L76.4647 24.4C78.5447 24.6133 80.0114 25.2 80.8647 26.16C81.718 27.0933 82.1447 28.4667 82.1447 30.28C82.1447 31.9867 81.798 33.2933 81.1047 34.2C80.4114 35.1333 79.3047 35.7733 77.7847 36.12C76.2647 36.4667 74.238 36.64 71.7047 36.64C69.6247 36.64 67.9047 36.5333 66.5447 36.32C65.2114 36.1333 64.1447 35.8133 63.3447 35.36C62.5714 34.9067 62.0247 34.3067 61.7047 33.56C61.4114 32.84 61.2647 31.9333 61.2647 30.84C61.2647 30.0133 61.4114 29.3067 61.7047 28.72C61.998 28.1067 62.4914 27.56 63.1847 27.08C63.9047 26.6 64.9047 26.16 66.1847 25.76L69.1047 24.72L71.2247 25.56L69.6247 26.6C68.958 27.08 68.4114 27.4933 67.9847 27.84C67.5847 28.16 67.2914 28.48 67.1047 28.8C66.9447 29.12 66.8647 29.5467 66.8647 30.08C66.8647 30.6933 66.998 31.16 67.2647 31.48C67.5314 31.8267 68.0114 32.0533 68.7047 32.16C69.4247 32.2933 70.398 32.36 71.6247 32.36C72.9047 32.36 73.9047 32.2933 74.6247 32.16C75.3447 32.0533 75.838 31.84 76.1047 31.52C76.398 31.2 76.5447 30.7467 76.5447 30.16C76.5447 29.6533 76.438 29.28 76.2247 29.04C76.038 28.8 75.7047 28.6267 75.2247 28.52C74.7714 28.3867 74.1314 28.2667 73.3047 28.16L67.1047 27.48C66.0647 27.3733 65.2514 27.0933 64.6647 26.64C64.078 26.1867 63.6647 25.64 63.4247 25C63.2114 24.3333 63.158 23.6667 63.2647 23C63.3714 22.3333 63.6114 21.7333 63.9847 21.2C64.3847 20.6667 64.8914 20.28 65.5047 20.04ZM93.6669 3.76V22.68C93.6669 23.4 93.8269 23.92 94.1469 24.24C94.4935 24.5333 95.0535 24.68 95.8269 24.68H98.3869L99.0269 28.68C98.5469 28.84 97.9602 28.9733 97.2669 29.08C96.5735 29.2133 95.8802 29.3067 95.1869 29.36C94.4935 29.44 93.9069 29.48 93.4269 29.48C91.6402 29.48 90.2402 29 89.2269 28.04C88.2402 27.08 87.7469 25.7333 87.7469 24L87.7069 3.76H93.6669ZM99.1869 9.24V13.12H84.2669V9.44L88.1069 9.24H99.1869ZM108.393 9.24V29H102.513V9.24H108.393ZM106.753 0.52C107.926 0.52 108.513 1.12 108.513 2.32V4.44C108.513 5.64 107.926 6.24 106.753 6.24H104.193C103.02 6.24 102.433 5.64 102.433 4.44V2.32C102.433 1.12 103.02 0.52 104.193 0.52H106.753ZM127.168 8.72C130.901 8.72 132.768 10.5467 132.768 14.2V29H126.848V16.04C126.848 15.16 126.688 14.56 126.368 14.24C126.048 13.8933 125.501 13.72 124.728 13.72C123.874 13.72 122.994 13.8933 122.088 14.24C121.181 14.56 120.061 15.0667 118.728 15.76L118.448 12.44C119.861 11.24 121.301 10.32 122.768 9.68C124.261 9.04 125.728 8.72 127.168 8.72ZM118.168 9.24L118.848 13.16L119.328 13.68V29H113.408V9.24H118.168Z" fill="#A4031F"/>
</svg>
